%TF.GenerationSoftware,KiCad,Pcbnew,6.0.2+dfsg-1*%
%TF.CreationDate,2023-10-04T14:13:59+02:00*%
%TF.ProjectId,controller,636f6e74-726f-46c6-9c65-722e6b696361,rev?*%
%TF.SameCoordinates,Original*%
%TF.FileFunction,Legend,Top*%
%TF.FilePolarity,Positive*%
%FSLAX46Y46*%
G04 Gerber Fmt 4.6, Leading zero omitted, Abs format (unit mm)*
G04 Created by KiCad (PCBNEW 6.0.2+dfsg-1) date 2023-10-04 14:13:59*
%MOMM*%
%LPD*%
G01*
G04 APERTURE LIST*
%TA.AperFunction,Profile*%
%ADD10C,0.100000*%
%TD*%
%ADD11C,0.150000*%
%ADD12C,0.120000*%
%ADD13C,1.000000*%
%ADD14C,0.800000*%
G04 APERTURE END LIST*
D10*
X76840000Y-69740000D02*
X148800000Y-69740000D01*
X148800000Y-69740000D02*
X148800000Y-127230000D01*
X148800000Y-127230000D02*
X76840000Y-127230000D01*
X76840000Y-127230000D02*
X76840000Y-69740000D01*
D11*
%TO.C,REF\u002A\u002A*%
X140326666Y-115112380D02*
X139993333Y-114636190D01*
X139755238Y-115112380D02*
X139755238Y-114112380D01*
X140136190Y-114112380D01*
X140231428Y-114160000D01*
X140279047Y-114207619D01*
X140326666Y-114302857D01*
X140326666Y-114445714D01*
X140279047Y-114540952D01*
X140231428Y-114588571D01*
X140136190Y-114636190D01*
X139755238Y-114636190D01*
X140755238Y-114588571D02*
X141088571Y-114588571D01*
X141231428Y-115112380D02*
X140755238Y-115112380D01*
X140755238Y-114112380D01*
X141231428Y-114112380D01*
X141993333Y-114588571D02*
X141660000Y-114588571D01*
X141660000Y-115112380D02*
X141660000Y-114112380D01*
X142136190Y-114112380D01*
X142660000Y-114112380D02*
X142660000Y-114350476D01*
X142421904Y-114255238D02*
X142660000Y-114350476D01*
X142898095Y-114255238D01*
X142517142Y-114540952D02*
X142660000Y-114350476D01*
X142802857Y-114540952D01*
X143421904Y-114112380D02*
X143421904Y-114350476D01*
X143183809Y-114255238D02*
X143421904Y-114350476D01*
X143660000Y-114255238D01*
X143279047Y-114540952D02*
X143421904Y-114350476D01*
X143564761Y-114540952D01*
X111596666Y-72552380D02*
X111263333Y-72076190D01*
X111025238Y-72552380D02*
X111025238Y-71552380D01*
X111406190Y-71552380D01*
X111501428Y-71600000D01*
X111549047Y-71647619D01*
X111596666Y-71742857D01*
X111596666Y-71885714D01*
X111549047Y-71980952D01*
X111501428Y-72028571D01*
X111406190Y-72076190D01*
X111025238Y-72076190D01*
X112025238Y-72028571D02*
X112358571Y-72028571D01*
X112501428Y-72552380D02*
X112025238Y-72552380D01*
X112025238Y-71552380D01*
X112501428Y-71552380D01*
X113263333Y-72028571D02*
X112930000Y-72028571D01*
X112930000Y-72552380D02*
X112930000Y-71552380D01*
X113406190Y-71552380D01*
X113930000Y-71552380D02*
X113930000Y-71790476D01*
X113691904Y-71695238D02*
X113930000Y-71790476D01*
X114168095Y-71695238D01*
X113787142Y-71980952D02*
X113930000Y-71790476D01*
X114072857Y-71980952D01*
X114691904Y-71552380D02*
X114691904Y-71790476D01*
X114453809Y-71695238D02*
X114691904Y-71790476D01*
X114930000Y-71695238D01*
X114549047Y-71980952D02*
X114691904Y-71790476D01*
X114834761Y-71980952D01*
%TO.C,Stop/start_robot1*%
X133372380Y-72884761D02*
X133515238Y-72932380D01*
X133753333Y-72932380D01*
X133848571Y-72884761D01*
X133896190Y-72837142D01*
X133943809Y-72741904D01*
X133943809Y-72646666D01*
X133896190Y-72551428D01*
X133848571Y-72503809D01*
X133753333Y-72456190D01*
X133562857Y-72408571D01*
X133467619Y-72360952D01*
X133420000Y-72313333D01*
X133372380Y-72218095D01*
X133372380Y-72122857D01*
X133420000Y-72027619D01*
X133467619Y-71980000D01*
X133562857Y-71932380D01*
X133800952Y-71932380D01*
X133943809Y-71980000D01*
X134229523Y-72265714D02*
X134610476Y-72265714D01*
X134372380Y-71932380D02*
X134372380Y-72789523D01*
X134420000Y-72884761D01*
X134515238Y-72932380D01*
X134610476Y-72932380D01*
X135086666Y-72932380D02*
X134991428Y-72884761D01*
X134943809Y-72837142D01*
X134896190Y-72741904D01*
X134896190Y-72456190D01*
X134943809Y-72360952D01*
X134991428Y-72313333D01*
X135086666Y-72265714D01*
X135229523Y-72265714D01*
X135324761Y-72313333D01*
X135372380Y-72360952D01*
X135420000Y-72456190D01*
X135420000Y-72741904D01*
X135372380Y-72837142D01*
X135324761Y-72884761D01*
X135229523Y-72932380D01*
X135086666Y-72932380D01*
X135848571Y-72265714D02*
X135848571Y-73265714D01*
X135848571Y-72313333D02*
X135943809Y-72265714D01*
X136134285Y-72265714D01*
X136229523Y-72313333D01*
X136277142Y-72360952D01*
X136324761Y-72456190D01*
X136324761Y-72741904D01*
X136277142Y-72837142D01*
X136229523Y-72884761D01*
X136134285Y-72932380D01*
X135943809Y-72932380D01*
X135848571Y-72884761D01*
X137467619Y-71884761D02*
X136610476Y-73170476D01*
X137753333Y-72884761D02*
X137848571Y-72932380D01*
X138039047Y-72932380D01*
X138134285Y-72884761D01*
X138181904Y-72789523D01*
X138181904Y-72741904D01*
X138134285Y-72646666D01*
X138039047Y-72599047D01*
X137896190Y-72599047D01*
X137800952Y-72551428D01*
X137753333Y-72456190D01*
X137753333Y-72408571D01*
X137800952Y-72313333D01*
X137896190Y-72265714D01*
X138039047Y-72265714D01*
X138134285Y-72313333D01*
X138467619Y-72265714D02*
X138848571Y-72265714D01*
X138610476Y-71932380D02*
X138610476Y-72789523D01*
X138658095Y-72884761D01*
X138753333Y-72932380D01*
X138848571Y-72932380D01*
X139610476Y-72932380D02*
X139610476Y-72408571D01*
X139562857Y-72313333D01*
X139467619Y-72265714D01*
X139277142Y-72265714D01*
X139181904Y-72313333D01*
X139610476Y-72884761D02*
X139515238Y-72932380D01*
X139277142Y-72932380D01*
X139181904Y-72884761D01*
X139134285Y-72789523D01*
X139134285Y-72694285D01*
X139181904Y-72599047D01*
X139277142Y-72551428D01*
X139515238Y-72551428D01*
X139610476Y-72503809D01*
X140086666Y-72932380D02*
X140086666Y-72265714D01*
X140086666Y-72456190D02*
X140134285Y-72360952D01*
X140181904Y-72313333D01*
X140277142Y-72265714D01*
X140372380Y-72265714D01*
X140562857Y-72265714D02*
X140943809Y-72265714D01*
X140705714Y-71932380D02*
X140705714Y-72789523D01*
X140753333Y-72884761D01*
X140848571Y-72932380D01*
X140943809Y-72932380D01*
X141039047Y-73027619D02*
X141800952Y-73027619D01*
X142039047Y-72932380D02*
X142039047Y-72265714D01*
X142039047Y-72456190D02*
X142086666Y-72360952D01*
X142134285Y-72313333D01*
X142229523Y-72265714D01*
X142324761Y-72265714D01*
X142800952Y-72932380D02*
X142705714Y-72884761D01*
X142658095Y-72837142D01*
X142610476Y-72741904D01*
X142610476Y-72456190D01*
X142658095Y-72360952D01*
X142705714Y-72313333D01*
X142800952Y-72265714D01*
X142943809Y-72265714D01*
X143039047Y-72313333D01*
X143086666Y-72360952D01*
X143134285Y-72456190D01*
X143134285Y-72741904D01*
X143086666Y-72837142D01*
X143039047Y-72884761D01*
X142943809Y-72932380D01*
X142800952Y-72932380D01*
X143562857Y-72932380D02*
X143562857Y-71932380D01*
X143562857Y-72313333D02*
X143658095Y-72265714D01*
X143848571Y-72265714D01*
X143943809Y-72313333D01*
X143991428Y-72360952D01*
X144039047Y-72456190D01*
X144039047Y-72741904D01*
X143991428Y-72837142D01*
X143943809Y-72884761D01*
X143848571Y-72932380D01*
X143658095Y-72932380D01*
X143562857Y-72884761D01*
X144610476Y-72932380D02*
X144515238Y-72884761D01*
X144467619Y-72837142D01*
X144420000Y-72741904D01*
X144420000Y-72456190D01*
X144467619Y-72360952D01*
X144515238Y-72313333D01*
X144610476Y-72265714D01*
X144753333Y-72265714D01*
X144848571Y-72313333D01*
X144896190Y-72360952D01*
X144943809Y-72456190D01*
X144943809Y-72741904D01*
X144896190Y-72837142D01*
X144848571Y-72884761D01*
X144753333Y-72932380D01*
X144610476Y-72932380D01*
X145229523Y-72265714D02*
X145610476Y-72265714D01*
X145372380Y-71932380D02*
X145372380Y-72789523D01*
X145420000Y-72884761D01*
X145515238Y-72932380D01*
X145610476Y-72932380D01*
X146467619Y-72932380D02*
X145896190Y-72932380D01*
X146181904Y-72932380D02*
X146181904Y-71932380D01*
X146086666Y-72075238D01*
X145991428Y-72170476D01*
X145896190Y-72218095D01*
%TO.C,Start/stop_wepon1*%
X116945238Y-72974761D02*
X117088095Y-73022380D01*
X117326190Y-73022380D01*
X117421428Y-72974761D01*
X117469047Y-72927142D01*
X117516666Y-72831904D01*
X117516666Y-72736666D01*
X117469047Y-72641428D01*
X117421428Y-72593809D01*
X117326190Y-72546190D01*
X117135714Y-72498571D01*
X117040476Y-72450952D01*
X116992857Y-72403333D01*
X116945238Y-72308095D01*
X116945238Y-72212857D01*
X116992857Y-72117619D01*
X117040476Y-72070000D01*
X117135714Y-72022380D01*
X117373809Y-72022380D01*
X117516666Y-72070000D01*
X117802380Y-72355714D02*
X118183333Y-72355714D01*
X117945238Y-72022380D02*
X117945238Y-72879523D01*
X117992857Y-72974761D01*
X118088095Y-73022380D01*
X118183333Y-73022380D01*
X118945238Y-73022380D02*
X118945238Y-72498571D01*
X118897619Y-72403333D01*
X118802380Y-72355714D01*
X118611904Y-72355714D01*
X118516666Y-72403333D01*
X118945238Y-72974761D02*
X118850000Y-73022380D01*
X118611904Y-73022380D01*
X118516666Y-72974761D01*
X118469047Y-72879523D01*
X118469047Y-72784285D01*
X118516666Y-72689047D01*
X118611904Y-72641428D01*
X118850000Y-72641428D01*
X118945238Y-72593809D01*
X119421428Y-73022380D02*
X119421428Y-72355714D01*
X119421428Y-72546190D02*
X119469047Y-72450952D01*
X119516666Y-72403333D01*
X119611904Y-72355714D01*
X119707142Y-72355714D01*
X119897619Y-72355714D02*
X120278571Y-72355714D01*
X120040476Y-72022380D02*
X120040476Y-72879523D01*
X120088095Y-72974761D01*
X120183333Y-73022380D01*
X120278571Y-73022380D01*
X121326190Y-71974761D02*
X120469047Y-73260476D01*
X121611904Y-72974761D02*
X121707142Y-73022380D01*
X121897619Y-73022380D01*
X121992857Y-72974761D01*
X122040476Y-72879523D01*
X122040476Y-72831904D01*
X121992857Y-72736666D01*
X121897619Y-72689047D01*
X121754761Y-72689047D01*
X121659523Y-72641428D01*
X121611904Y-72546190D01*
X121611904Y-72498571D01*
X121659523Y-72403333D01*
X121754761Y-72355714D01*
X121897619Y-72355714D01*
X121992857Y-72403333D01*
X122326190Y-72355714D02*
X122707142Y-72355714D01*
X122469047Y-72022380D02*
X122469047Y-72879523D01*
X122516666Y-72974761D01*
X122611904Y-73022380D01*
X122707142Y-73022380D01*
X123183333Y-73022380D02*
X123088095Y-72974761D01*
X123040476Y-72927142D01*
X122992857Y-72831904D01*
X122992857Y-72546190D01*
X123040476Y-72450952D01*
X123088095Y-72403333D01*
X123183333Y-72355714D01*
X123326190Y-72355714D01*
X123421428Y-72403333D01*
X123469047Y-72450952D01*
X123516666Y-72546190D01*
X123516666Y-72831904D01*
X123469047Y-72927142D01*
X123421428Y-72974761D01*
X123326190Y-73022380D01*
X123183333Y-73022380D01*
X123945238Y-72355714D02*
X123945238Y-73355714D01*
X123945238Y-72403333D02*
X124040476Y-72355714D01*
X124230952Y-72355714D01*
X124326190Y-72403333D01*
X124373809Y-72450952D01*
X124421428Y-72546190D01*
X124421428Y-72831904D01*
X124373809Y-72927142D01*
X124326190Y-72974761D01*
X124230952Y-73022380D01*
X124040476Y-73022380D01*
X123945238Y-72974761D01*
X124611904Y-73117619D02*
X125373809Y-73117619D01*
X125516666Y-72355714D02*
X125707142Y-73022380D01*
X125897619Y-72546190D01*
X126088095Y-73022380D01*
X126278571Y-72355714D01*
X127040476Y-72974761D02*
X126945238Y-73022380D01*
X126754761Y-73022380D01*
X126659523Y-72974761D01*
X126611904Y-72879523D01*
X126611904Y-72498571D01*
X126659523Y-72403333D01*
X126754761Y-72355714D01*
X126945238Y-72355714D01*
X127040476Y-72403333D01*
X127088095Y-72498571D01*
X127088095Y-72593809D01*
X126611904Y-72689047D01*
X127516666Y-72355714D02*
X127516666Y-73355714D01*
X127516666Y-72403333D02*
X127611904Y-72355714D01*
X127802380Y-72355714D01*
X127897619Y-72403333D01*
X127945238Y-72450952D01*
X127992857Y-72546190D01*
X127992857Y-72831904D01*
X127945238Y-72927142D01*
X127897619Y-72974761D01*
X127802380Y-73022380D01*
X127611904Y-73022380D01*
X127516666Y-72974761D01*
X128564285Y-73022380D02*
X128469047Y-72974761D01*
X128421428Y-72927142D01*
X128373809Y-72831904D01*
X128373809Y-72546190D01*
X128421428Y-72450952D01*
X128469047Y-72403333D01*
X128564285Y-72355714D01*
X128707142Y-72355714D01*
X128802380Y-72403333D01*
X128850000Y-72450952D01*
X128897619Y-72546190D01*
X128897619Y-72831904D01*
X128850000Y-72927142D01*
X128802380Y-72974761D01*
X128707142Y-73022380D01*
X128564285Y-73022380D01*
X129326190Y-72355714D02*
X129326190Y-73022380D01*
X129326190Y-72450952D02*
X129373809Y-72403333D01*
X129469047Y-72355714D01*
X129611904Y-72355714D01*
X129707142Y-72403333D01*
X129754761Y-72498571D01*
X129754761Y-73022380D01*
X130754761Y-73022380D02*
X130183333Y-73022380D01*
X130469047Y-73022380D02*
X130469047Y-72022380D01*
X130373809Y-72165238D01*
X130278571Y-72260476D01*
X130183333Y-72308095D01*
%TO.C,Resistor2*%
X121779523Y-118592380D02*
X121446190Y-118116190D01*
X121208095Y-118592380D02*
X121208095Y-117592380D01*
X121589047Y-117592380D01*
X121684285Y-117640000D01*
X121731904Y-117687619D01*
X121779523Y-117782857D01*
X121779523Y-117925714D01*
X121731904Y-118020952D01*
X121684285Y-118068571D01*
X121589047Y-118116190D01*
X121208095Y-118116190D01*
X122589047Y-118544761D02*
X122493809Y-118592380D01*
X122303333Y-118592380D01*
X122208095Y-118544761D01*
X122160476Y-118449523D01*
X122160476Y-118068571D01*
X122208095Y-117973333D01*
X122303333Y-117925714D01*
X122493809Y-117925714D01*
X122589047Y-117973333D01*
X122636666Y-118068571D01*
X122636666Y-118163809D01*
X122160476Y-118259047D01*
X123017619Y-118544761D02*
X123112857Y-118592380D01*
X123303333Y-118592380D01*
X123398571Y-118544761D01*
X123446190Y-118449523D01*
X123446190Y-118401904D01*
X123398571Y-118306666D01*
X123303333Y-118259047D01*
X123160476Y-118259047D01*
X123065238Y-118211428D01*
X123017619Y-118116190D01*
X123017619Y-118068571D01*
X123065238Y-117973333D01*
X123160476Y-117925714D01*
X123303333Y-117925714D01*
X123398571Y-117973333D01*
X123874761Y-118592380D02*
X123874761Y-117925714D01*
X123874761Y-117592380D02*
X123827142Y-117640000D01*
X123874761Y-117687619D01*
X123922380Y-117640000D01*
X123874761Y-117592380D01*
X123874761Y-117687619D01*
X124303333Y-118544761D02*
X124398571Y-118592380D01*
X124589047Y-118592380D01*
X124684285Y-118544761D01*
X124731904Y-118449523D01*
X124731904Y-118401904D01*
X124684285Y-118306666D01*
X124589047Y-118259047D01*
X124446190Y-118259047D01*
X124350952Y-118211428D01*
X124303333Y-118116190D01*
X124303333Y-118068571D01*
X124350952Y-117973333D01*
X124446190Y-117925714D01*
X124589047Y-117925714D01*
X124684285Y-117973333D01*
X125017619Y-117925714D02*
X125398571Y-117925714D01*
X125160476Y-117592380D02*
X125160476Y-118449523D01*
X125208095Y-118544761D01*
X125303333Y-118592380D01*
X125398571Y-118592380D01*
X125874761Y-118592380D02*
X125779523Y-118544761D01*
X125731904Y-118497142D01*
X125684285Y-118401904D01*
X125684285Y-118116190D01*
X125731904Y-118020952D01*
X125779523Y-117973333D01*
X125874761Y-117925714D01*
X126017619Y-117925714D01*
X126112857Y-117973333D01*
X126160476Y-118020952D01*
X126208095Y-118116190D01*
X126208095Y-118401904D01*
X126160476Y-118497142D01*
X126112857Y-118544761D01*
X126017619Y-118592380D01*
X125874761Y-118592380D01*
X126636666Y-118592380D02*
X126636666Y-117925714D01*
X126636666Y-118116190D02*
X126684285Y-118020952D01*
X126731904Y-117973333D01*
X126827142Y-117925714D01*
X126922380Y-117925714D01*
X127208095Y-117687619D02*
X127255714Y-117640000D01*
X127350952Y-117592380D01*
X127589047Y-117592380D01*
X127684285Y-117640000D01*
X127731904Y-117687619D01*
X127779523Y-117782857D01*
X127779523Y-117878095D01*
X127731904Y-118020952D01*
X127160476Y-118592380D01*
X127779523Y-118592380D01*
%TO.C,U1*%
X118633095Y-100822380D02*
X118633095Y-101631904D01*
X118680714Y-101727142D01*
X118728333Y-101774761D01*
X118823571Y-101822380D01*
X119014047Y-101822380D01*
X119109285Y-101774761D01*
X119156904Y-101727142D01*
X119204523Y-101631904D01*
X119204523Y-100822380D01*
X120204523Y-101822380D02*
X119633095Y-101822380D01*
X119918809Y-101822380D02*
X119918809Y-100822380D01*
X119823571Y-100965238D01*
X119728333Y-101060476D01*
X119633095Y-101108095D01*
%TO.C,Resistor4*%
X122579523Y-101522380D02*
X122246190Y-101046190D01*
X122008095Y-101522380D02*
X122008095Y-100522380D01*
X122389047Y-100522380D01*
X122484285Y-100570000D01*
X122531904Y-100617619D01*
X122579523Y-100712857D01*
X122579523Y-100855714D01*
X122531904Y-100950952D01*
X122484285Y-100998571D01*
X122389047Y-101046190D01*
X122008095Y-101046190D01*
X123389047Y-101474761D02*
X123293809Y-101522380D01*
X123103333Y-101522380D01*
X123008095Y-101474761D01*
X122960476Y-101379523D01*
X122960476Y-100998571D01*
X123008095Y-100903333D01*
X123103333Y-100855714D01*
X123293809Y-100855714D01*
X123389047Y-100903333D01*
X123436666Y-100998571D01*
X123436666Y-101093809D01*
X122960476Y-101189047D01*
X123817619Y-101474761D02*
X123912857Y-101522380D01*
X124103333Y-101522380D01*
X124198571Y-101474761D01*
X124246190Y-101379523D01*
X124246190Y-101331904D01*
X124198571Y-101236666D01*
X124103333Y-101189047D01*
X123960476Y-101189047D01*
X123865238Y-101141428D01*
X123817619Y-101046190D01*
X123817619Y-100998571D01*
X123865238Y-100903333D01*
X123960476Y-100855714D01*
X124103333Y-100855714D01*
X124198571Y-100903333D01*
X124674761Y-101522380D02*
X124674761Y-100855714D01*
X124674761Y-100522380D02*
X124627142Y-100570000D01*
X124674761Y-100617619D01*
X124722380Y-100570000D01*
X124674761Y-100522380D01*
X124674761Y-100617619D01*
X125103333Y-101474761D02*
X125198571Y-101522380D01*
X125389047Y-101522380D01*
X125484285Y-101474761D01*
X125531904Y-101379523D01*
X125531904Y-101331904D01*
X125484285Y-101236666D01*
X125389047Y-101189047D01*
X125246190Y-101189047D01*
X125150952Y-101141428D01*
X125103333Y-101046190D01*
X125103333Y-100998571D01*
X125150952Y-100903333D01*
X125246190Y-100855714D01*
X125389047Y-100855714D01*
X125484285Y-100903333D01*
X125817619Y-100855714D02*
X126198571Y-100855714D01*
X125960476Y-100522380D02*
X125960476Y-101379523D01*
X126008095Y-101474761D01*
X126103333Y-101522380D01*
X126198571Y-101522380D01*
X126674761Y-101522380D02*
X126579523Y-101474761D01*
X126531904Y-101427142D01*
X126484285Y-101331904D01*
X126484285Y-101046190D01*
X126531904Y-100950952D01*
X126579523Y-100903333D01*
X126674761Y-100855714D01*
X126817619Y-100855714D01*
X126912857Y-100903333D01*
X126960476Y-100950952D01*
X127008095Y-101046190D01*
X127008095Y-101331904D01*
X126960476Y-101427142D01*
X126912857Y-101474761D01*
X126817619Y-101522380D01*
X126674761Y-101522380D01*
X127436666Y-101522380D02*
X127436666Y-100855714D01*
X127436666Y-101046190D02*
X127484285Y-100950952D01*
X127531904Y-100903333D01*
X127627142Y-100855714D01*
X127722380Y-100855714D01*
X128484285Y-100855714D02*
X128484285Y-101522380D01*
X128246190Y-100474761D02*
X128008095Y-101189047D01*
X128627142Y-101189047D01*
%TO.C,Resistor1*%
X117399523Y-125702380D02*
X117066190Y-125226190D01*
X116828095Y-125702380D02*
X116828095Y-124702380D01*
X117209047Y-124702380D01*
X117304285Y-124750000D01*
X117351904Y-124797619D01*
X117399523Y-124892857D01*
X117399523Y-125035714D01*
X117351904Y-125130952D01*
X117304285Y-125178571D01*
X117209047Y-125226190D01*
X116828095Y-125226190D01*
X118209047Y-125654761D02*
X118113809Y-125702380D01*
X117923333Y-125702380D01*
X117828095Y-125654761D01*
X117780476Y-125559523D01*
X117780476Y-125178571D01*
X117828095Y-125083333D01*
X117923333Y-125035714D01*
X118113809Y-125035714D01*
X118209047Y-125083333D01*
X118256666Y-125178571D01*
X118256666Y-125273809D01*
X117780476Y-125369047D01*
X118637619Y-125654761D02*
X118732857Y-125702380D01*
X118923333Y-125702380D01*
X119018571Y-125654761D01*
X119066190Y-125559523D01*
X119066190Y-125511904D01*
X119018571Y-125416666D01*
X118923333Y-125369047D01*
X118780476Y-125369047D01*
X118685238Y-125321428D01*
X118637619Y-125226190D01*
X118637619Y-125178571D01*
X118685238Y-125083333D01*
X118780476Y-125035714D01*
X118923333Y-125035714D01*
X119018571Y-125083333D01*
X119494761Y-125702380D02*
X119494761Y-125035714D01*
X119494761Y-124702380D02*
X119447142Y-124750000D01*
X119494761Y-124797619D01*
X119542380Y-124750000D01*
X119494761Y-124702380D01*
X119494761Y-124797619D01*
X119923333Y-125654761D02*
X120018571Y-125702380D01*
X120209047Y-125702380D01*
X120304285Y-125654761D01*
X120351904Y-125559523D01*
X120351904Y-125511904D01*
X120304285Y-125416666D01*
X120209047Y-125369047D01*
X120066190Y-125369047D01*
X119970952Y-125321428D01*
X119923333Y-125226190D01*
X119923333Y-125178571D01*
X119970952Y-125083333D01*
X120066190Y-125035714D01*
X120209047Y-125035714D01*
X120304285Y-125083333D01*
X120637619Y-125035714D02*
X121018571Y-125035714D01*
X120780476Y-124702380D02*
X120780476Y-125559523D01*
X120828095Y-125654761D01*
X120923333Y-125702380D01*
X121018571Y-125702380D01*
X121494761Y-125702380D02*
X121399523Y-125654761D01*
X121351904Y-125607142D01*
X121304285Y-125511904D01*
X121304285Y-125226190D01*
X121351904Y-125130952D01*
X121399523Y-125083333D01*
X121494761Y-125035714D01*
X121637619Y-125035714D01*
X121732857Y-125083333D01*
X121780476Y-125130952D01*
X121828095Y-125226190D01*
X121828095Y-125511904D01*
X121780476Y-125607142D01*
X121732857Y-125654761D01*
X121637619Y-125702380D01*
X121494761Y-125702380D01*
X122256666Y-125702380D02*
X122256666Y-125035714D01*
X122256666Y-125226190D02*
X122304285Y-125130952D01*
X122351904Y-125083333D01*
X122447142Y-125035714D01*
X122542380Y-125035714D01*
X123399523Y-125702380D02*
X122828095Y-125702380D01*
X123113809Y-125702380D02*
X123113809Y-124702380D01*
X123018571Y-124845238D01*
X122923333Y-124940476D01*
X122828095Y-124988095D01*
%TO.C,ESPcontroller1*%
X88670476Y-108838571D02*
X89003809Y-108838571D01*
X89146666Y-109362380D02*
X88670476Y-109362380D01*
X88670476Y-108362380D01*
X89146666Y-108362380D01*
X89527619Y-109314761D02*
X89670476Y-109362380D01*
X89908571Y-109362380D01*
X90003809Y-109314761D01*
X90051428Y-109267142D01*
X90099047Y-109171904D01*
X90099047Y-109076666D01*
X90051428Y-108981428D01*
X90003809Y-108933809D01*
X89908571Y-108886190D01*
X89718095Y-108838571D01*
X89622857Y-108790952D01*
X89575238Y-108743333D01*
X89527619Y-108648095D01*
X89527619Y-108552857D01*
X89575238Y-108457619D01*
X89622857Y-108410000D01*
X89718095Y-108362380D01*
X89956190Y-108362380D01*
X90099047Y-108410000D01*
X90527619Y-109362380D02*
X90527619Y-108362380D01*
X90908571Y-108362380D01*
X91003809Y-108410000D01*
X91051428Y-108457619D01*
X91099047Y-108552857D01*
X91099047Y-108695714D01*
X91051428Y-108790952D01*
X91003809Y-108838571D01*
X90908571Y-108886190D01*
X90527619Y-108886190D01*
X91956190Y-109314761D02*
X91860952Y-109362380D01*
X91670476Y-109362380D01*
X91575238Y-109314761D01*
X91527619Y-109267142D01*
X91480000Y-109171904D01*
X91480000Y-108886190D01*
X91527619Y-108790952D01*
X91575238Y-108743333D01*
X91670476Y-108695714D01*
X91860952Y-108695714D01*
X91956190Y-108743333D01*
X92527619Y-109362380D02*
X92432380Y-109314761D01*
X92384761Y-109267142D01*
X92337142Y-109171904D01*
X92337142Y-108886190D01*
X92384761Y-108790952D01*
X92432380Y-108743333D01*
X92527619Y-108695714D01*
X92670476Y-108695714D01*
X92765714Y-108743333D01*
X92813333Y-108790952D01*
X92860952Y-108886190D01*
X92860952Y-109171904D01*
X92813333Y-109267142D01*
X92765714Y-109314761D01*
X92670476Y-109362380D01*
X92527619Y-109362380D01*
X93289523Y-108695714D02*
X93289523Y-109362380D01*
X93289523Y-108790952D02*
X93337142Y-108743333D01*
X93432380Y-108695714D01*
X93575238Y-108695714D01*
X93670476Y-108743333D01*
X93718095Y-108838571D01*
X93718095Y-109362380D01*
X94051428Y-108695714D02*
X94432380Y-108695714D01*
X94194285Y-108362380D02*
X94194285Y-109219523D01*
X94241904Y-109314761D01*
X94337142Y-109362380D01*
X94432380Y-109362380D01*
X94765714Y-109362380D02*
X94765714Y-108695714D01*
X94765714Y-108886190D02*
X94813333Y-108790952D01*
X94860952Y-108743333D01*
X94956190Y-108695714D01*
X95051428Y-108695714D01*
X95527619Y-109362380D02*
X95432380Y-109314761D01*
X95384761Y-109267142D01*
X95337142Y-109171904D01*
X95337142Y-108886190D01*
X95384761Y-108790952D01*
X95432380Y-108743333D01*
X95527619Y-108695714D01*
X95670476Y-108695714D01*
X95765714Y-108743333D01*
X95813333Y-108790952D01*
X95860952Y-108886190D01*
X95860952Y-109171904D01*
X95813333Y-109267142D01*
X95765714Y-109314761D01*
X95670476Y-109362380D01*
X95527619Y-109362380D01*
X96432380Y-109362380D02*
X96337142Y-109314761D01*
X96289523Y-109219523D01*
X96289523Y-108362380D01*
X96956190Y-109362380D02*
X96860952Y-109314761D01*
X96813333Y-109219523D01*
X96813333Y-108362380D01*
X97718095Y-109314761D02*
X97622857Y-109362380D01*
X97432380Y-109362380D01*
X97337142Y-109314761D01*
X97289523Y-109219523D01*
X97289523Y-108838571D01*
X97337142Y-108743333D01*
X97432380Y-108695714D01*
X97622857Y-108695714D01*
X97718095Y-108743333D01*
X97765714Y-108838571D01*
X97765714Y-108933809D01*
X97289523Y-109029047D01*
X98194285Y-109362380D02*
X98194285Y-108695714D01*
X98194285Y-108886190D02*
X98241904Y-108790952D01*
X98289523Y-108743333D01*
X98384761Y-108695714D01*
X98480000Y-108695714D01*
X99337142Y-109362380D02*
X98765714Y-109362380D01*
X99051428Y-109362380D02*
X99051428Y-108362380D01*
X98956190Y-108505238D01*
X98860952Y-108600476D01*
X98765714Y-108648095D01*
X99338095Y-79628571D02*
X99671428Y-79628571D01*
X99814285Y-80152380D02*
X99338095Y-80152380D01*
X99338095Y-79152380D01*
X99814285Y-79152380D01*
X100242857Y-79485714D02*
X100242857Y-80152380D01*
X100242857Y-79580952D02*
X100290476Y-79533333D01*
X100385714Y-79485714D01*
X100528571Y-79485714D01*
X100623809Y-79533333D01*
X100671428Y-79628571D01*
X100671428Y-80152380D01*
X101576190Y-80152380D02*
X101576190Y-79628571D01*
X101528571Y-79533333D01*
X101433333Y-79485714D01*
X101242857Y-79485714D01*
X101147619Y-79533333D01*
X101576190Y-80104761D02*
X101480952Y-80152380D01*
X101242857Y-80152380D01*
X101147619Y-80104761D01*
X101100000Y-80009523D01*
X101100000Y-79914285D01*
X101147619Y-79819047D01*
X101242857Y-79771428D01*
X101480952Y-79771428D01*
X101576190Y-79723809D01*
X102052380Y-80152380D02*
X102052380Y-79152380D01*
X102052380Y-79533333D02*
X102147619Y-79485714D01*
X102338095Y-79485714D01*
X102433333Y-79533333D01*
X102480952Y-79580952D01*
X102528571Y-79676190D01*
X102528571Y-79961904D01*
X102480952Y-80057142D01*
X102433333Y-80104761D01*
X102338095Y-80152380D01*
X102147619Y-80152380D01*
X102052380Y-80104761D01*
X103100000Y-80152380D02*
X103004761Y-80104761D01*
X102957142Y-80009523D01*
X102957142Y-79152380D01*
X103861904Y-80104761D02*
X103766666Y-80152380D01*
X103576190Y-80152380D01*
X103480952Y-80104761D01*
X103433333Y-80009523D01*
X103433333Y-79628571D01*
X103480952Y-79533333D01*
X103576190Y-79485714D01*
X103766666Y-79485714D01*
X103861904Y-79533333D01*
X103909523Y-79628571D01*
X103909523Y-79723809D01*
X103433333Y-79819047D01*
X85240952Y-79628571D02*
X85383809Y-79676190D01*
X85431428Y-79723809D01*
X85479047Y-79819047D01*
X85479047Y-79961904D01*
X85431428Y-80057142D01*
X85383809Y-80104761D01*
X85288571Y-80152380D01*
X84907619Y-80152380D01*
X84907619Y-79152380D01*
X85240952Y-79152380D01*
X85336190Y-79200000D01*
X85383809Y-79247619D01*
X85431428Y-79342857D01*
X85431428Y-79438095D01*
X85383809Y-79533333D01*
X85336190Y-79580952D01*
X85240952Y-79628571D01*
X84907619Y-79628571D01*
X86050476Y-80152380D02*
X85955238Y-80104761D01*
X85907619Y-80057142D01*
X85860000Y-79961904D01*
X85860000Y-79676190D01*
X85907619Y-79580952D01*
X85955238Y-79533333D01*
X86050476Y-79485714D01*
X86193333Y-79485714D01*
X86288571Y-79533333D01*
X86336190Y-79580952D01*
X86383809Y-79676190D01*
X86383809Y-79961904D01*
X86336190Y-80057142D01*
X86288571Y-80104761D01*
X86193333Y-80152380D01*
X86050476Y-80152380D01*
X86955238Y-80152380D02*
X86860000Y-80104761D01*
X86812380Y-80057142D01*
X86764761Y-79961904D01*
X86764761Y-79676190D01*
X86812380Y-79580952D01*
X86860000Y-79533333D01*
X86955238Y-79485714D01*
X87098095Y-79485714D01*
X87193333Y-79533333D01*
X87240952Y-79580952D01*
X87288571Y-79676190D01*
X87288571Y-79961904D01*
X87240952Y-80057142D01*
X87193333Y-80104761D01*
X87098095Y-80152380D01*
X86955238Y-80152380D01*
X87574285Y-79485714D02*
X87955238Y-79485714D01*
X87717142Y-79152380D02*
X87717142Y-80009523D01*
X87764761Y-80104761D01*
X87860000Y-80152380D01*
X87955238Y-80152380D01*
X92718095Y-75342380D02*
X92718095Y-76151904D01*
X92765714Y-76247142D01*
X92813333Y-76294761D01*
X92908571Y-76342380D01*
X93099047Y-76342380D01*
X93194285Y-76294761D01*
X93241904Y-76247142D01*
X93289523Y-76151904D01*
X93289523Y-75342380D01*
X93718095Y-76294761D02*
X93860952Y-76342380D01*
X94099047Y-76342380D01*
X94194285Y-76294761D01*
X94241904Y-76247142D01*
X94289523Y-76151904D01*
X94289523Y-76056666D01*
X94241904Y-75961428D01*
X94194285Y-75913809D01*
X94099047Y-75866190D01*
X93908571Y-75818571D01*
X93813333Y-75770952D01*
X93765714Y-75723333D01*
X93718095Y-75628095D01*
X93718095Y-75532857D01*
X93765714Y-75437619D01*
X93813333Y-75390000D01*
X93908571Y-75342380D01*
X94146666Y-75342380D01*
X94289523Y-75390000D01*
X95051428Y-75818571D02*
X95194285Y-75866190D01*
X95241904Y-75913809D01*
X95289523Y-76009047D01*
X95289523Y-76151904D01*
X95241904Y-76247142D01*
X95194285Y-76294761D01*
X95099047Y-76342380D01*
X94718095Y-76342380D01*
X94718095Y-75342380D01*
X95051428Y-75342380D01*
X95146666Y-75390000D01*
X95194285Y-75437619D01*
X95241904Y-75532857D01*
X95241904Y-75628095D01*
X95194285Y-75723333D01*
X95146666Y-75770952D01*
X95051428Y-75818571D01*
X94718095Y-75818571D01*
%TO.C,R1*%
X118153333Y-92762380D02*
X117820000Y-92286190D01*
X117581904Y-92762380D02*
X117581904Y-91762380D01*
X117962857Y-91762380D01*
X118058095Y-91810000D01*
X118105714Y-91857619D01*
X118153333Y-91952857D01*
X118153333Y-92095714D01*
X118105714Y-92190952D01*
X118058095Y-92238571D01*
X117962857Y-92286190D01*
X117581904Y-92286190D01*
X119105714Y-92762380D02*
X118534285Y-92762380D01*
X118820000Y-92762380D02*
X118820000Y-91762380D01*
X118724761Y-91905238D01*
X118629523Y-92000476D01*
X118534285Y-92048095D01*
%TO.C,Weponspeed1*%
X108472380Y-102467142D02*
X109472380Y-102229047D01*
X108758095Y-102038571D01*
X109472380Y-101848095D01*
X108472380Y-101610000D01*
X109424761Y-100848095D02*
X109472380Y-100943333D01*
X109472380Y-101133809D01*
X109424761Y-101229047D01*
X109329523Y-101276666D01*
X108948571Y-101276666D01*
X108853333Y-101229047D01*
X108805714Y-101133809D01*
X108805714Y-100943333D01*
X108853333Y-100848095D01*
X108948571Y-100800476D01*
X109043809Y-100800476D01*
X109139047Y-101276666D01*
X108805714Y-100371904D02*
X109805714Y-100371904D01*
X108853333Y-100371904D02*
X108805714Y-100276666D01*
X108805714Y-100086190D01*
X108853333Y-99990952D01*
X108900952Y-99943333D01*
X108996190Y-99895714D01*
X109281904Y-99895714D01*
X109377142Y-99943333D01*
X109424761Y-99990952D01*
X109472380Y-100086190D01*
X109472380Y-100276666D01*
X109424761Y-100371904D01*
X109472380Y-99324285D02*
X109424761Y-99419523D01*
X109377142Y-99467142D01*
X109281904Y-99514761D01*
X108996190Y-99514761D01*
X108900952Y-99467142D01*
X108853333Y-99419523D01*
X108805714Y-99324285D01*
X108805714Y-99181428D01*
X108853333Y-99086190D01*
X108900952Y-99038571D01*
X108996190Y-98990952D01*
X109281904Y-98990952D01*
X109377142Y-99038571D01*
X109424761Y-99086190D01*
X109472380Y-99181428D01*
X109472380Y-99324285D01*
X108805714Y-98562380D02*
X109472380Y-98562380D01*
X108900952Y-98562380D02*
X108853333Y-98514761D01*
X108805714Y-98419523D01*
X108805714Y-98276666D01*
X108853333Y-98181428D01*
X108948571Y-98133809D01*
X109472380Y-98133809D01*
X109424761Y-97705238D02*
X109472380Y-97610000D01*
X109472380Y-97419523D01*
X109424761Y-97324285D01*
X109329523Y-97276666D01*
X109281904Y-97276666D01*
X109186666Y-97324285D01*
X109139047Y-97419523D01*
X109139047Y-97562380D01*
X109091428Y-97657619D01*
X108996190Y-97705238D01*
X108948571Y-97705238D01*
X108853333Y-97657619D01*
X108805714Y-97562380D01*
X108805714Y-97419523D01*
X108853333Y-97324285D01*
X108805714Y-96848095D02*
X109805714Y-96848095D01*
X108853333Y-96848095D02*
X108805714Y-96752857D01*
X108805714Y-96562380D01*
X108853333Y-96467142D01*
X108900952Y-96419523D01*
X108996190Y-96371904D01*
X109281904Y-96371904D01*
X109377142Y-96419523D01*
X109424761Y-96467142D01*
X109472380Y-96562380D01*
X109472380Y-96752857D01*
X109424761Y-96848095D01*
X109424761Y-95562380D02*
X109472380Y-95657619D01*
X109472380Y-95848095D01*
X109424761Y-95943333D01*
X109329523Y-95990952D01*
X108948571Y-95990952D01*
X108853333Y-95943333D01*
X108805714Y-95848095D01*
X108805714Y-95657619D01*
X108853333Y-95562380D01*
X108948571Y-95514761D01*
X109043809Y-95514761D01*
X109139047Y-95990952D01*
X109424761Y-94705238D02*
X109472380Y-94800476D01*
X109472380Y-94990952D01*
X109424761Y-95086190D01*
X109329523Y-95133809D01*
X108948571Y-95133809D01*
X108853333Y-95086190D01*
X108805714Y-94990952D01*
X108805714Y-94800476D01*
X108853333Y-94705238D01*
X108948571Y-94657619D01*
X109043809Y-94657619D01*
X109139047Y-95133809D01*
X109472380Y-93800476D02*
X108472380Y-93800476D01*
X109424761Y-93800476D02*
X109472380Y-93895714D01*
X109472380Y-94086190D01*
X109424761Y-94181428D01*
X109377142Y-94229047D01*
X109281904Y-94276666D01*
X108996190Y-94276666D01*
X108900952Y-94229047D01*
X108853333Y-94181428D01*
X108805714Y-94086190D01*
X108805714Y-93895714D01*
X108853333Y-93800476D01*
X109472380Y-92800476D02*
X109472380Y-93371904D01*
X109472380Y-93086190D02*
X108472380Y-93086190D01*
X108615238Y-93181428D01*
X108710476Y-93276666D01*
X108758095Y-93371904D01*
D12*
%TO.C,Stop/start_robot1*%
X134650000Y-74260000D02*
X134650000Y-73260000D01*
X134900000Y-82950000D02*
X134900000Y-73510000D01*
X135650000Y-73260000D02*
X134650000Y-73260000D01*
X138220000Y-76530000D02*
X138220000Y-79830000D01*
X141520000Y-76530000D02*
X138220000Y-76530000D01*
X141520000Y-76530000D02*
X141520000Y-79830000D01*
X141520000Y-79830000D02*
X138220000Y-79830000D01*
X144940000Y-73510000D02*
X134900000Y-73510000D01*
X144940000Y-82950000D02*
X134900000Y-82950000D01*
X144940000Y-82950000D02*
X144940000Y-73510000D01*
%TO.C,Start/stop_wepon1*%
X118580000Y-74350000D02*
X118580000Y-73350000D01*
X118830000Y-83040000D02*
X118830000Y-73600000D01*
X119580000Y-73350000D02*
X118580000Y-73350000D01*
X122150000Y-76620000D02*
X122150000Y-79920000D01*
X125450000Y-76620000D02*
X122150000Y-76620000D01*
X125450000Y-76620000D02*
X125450000Y-79920000D01*
X125450000Y-79920000D02*
X122150000Y-79920000D01*
X128870000Y-73600000D02*
X118830000Y-73600000D01*
X128870000Y-83040000D02*
X118830000Y-83040000D01*
X128870000Y-83040000D02*
X128870000Y-73600000D01*
%TO.C,Resistor2*%
X129090000Y-113700000D02*
X119850000Y-113700000D01*
X129090000Y-117140000D02*
X129090000Y-113700000D01*
X131050000Y-115420000D02*
X129090000Y-115420000D01*
X117890000Y-115420000D02*
X119850000Y-115420000D01*
X119850000Y-117140000D02*
X129090000Y-117140000D01*
X119850000Y-113700000D02*
X119850000Y-117140000D01*
%TO.C,U1*%
X118065000Y-113090000D02*
X120725000Y-113090000D01*
X118065000Y-105410000D02*
X120725000Y-105410000D01*
X118065000Y-105410000D02*
X118065000Y-113090000D01*
X120725000Y-102810000D02*
X120725000Y-104140000D01*
X119395000Y-102810000D02*
X120725000Y-102810000D01*
X120725000Y-105410000D02*
X120725000Y-113090000D01*
%TO.C,Resistor4*%
X129890000Y-100070000D02*
X129890000Y-96630000D01*
X131850000Y-98350000D02*
X129890000Y-98350000D01*
X129890000Y-96630000D02*
X120650000Y-96630000D01*
X118690000Y-98350000D02*
X120650000Y-98350000D01*
X120650000Y-96630000D02*
X120650000Y-100070000D01*
X120650000Y-100070000D02*
X129890000Y-100070000D01*
%TO.C,Resistor1*%
X115470000Y-120810000D02*
X115470000Y-124250000D01*
X124710000Y-124250000D02*
X124710000Y-120810000D01*
X126670000Y-122530000D02*
X124710000Y-122530000D01*
X115470000Y-124250000D02*
X124710000Y-124250000D01*
X113510000Y-122530000D02*
X115470000Y-122530000D01*
X124710000Y-120810000D02*
X115470000Y-120810000D01*
%TO.C,ESPcontroller1*%
X97980000Y-79920000D02*
X89980000Y-79920000D01*
X97980000Y-79920000D02*
X97980000Y-73920000D01*
X101480000Y-118420000D02*
X86480000Y-118420000D01*
X87630000Y-78430000D02*
X85090000Y-78430000D01*
X85090000Y-78430000D02*
X85090000Y-74620000D01*
X91440000Y-121356000D02*
X91440000Y-123388000D01*
X86480000Y-100420000D02*
X101480000Y-100420000D01*
X85090000Y-74620000D02*
X87630000Y-74620000D01*
X107980000Y-123420000D02*
X107980000Y-75920000D01*
X102870000Y-124150000D02*
X85090000Y-124150000D01*
X105980000Y-73920000D02*
X81980000Y-73920000D01*
X93980000Y-123388000D02*
X93980000Y-121356000D01*
X79980000Y-75920000D02*
X79980000Y-123420000D01*
X100330000Y-74620000D02*
X102870000Y-74620000D01*
X86480000Y-118420000D02*
X86480000Y-100420000D01*
X102870000Y-78430000D02*
X100330000Y-78430000D01*
X91440000Y-123388000D02*
X86360000Y-123388000D01*
X87630000Y-74620000D02*
X87630000Y-78430000D01*
X85090000Y-124150000D02*
X85090000Y-119070000D01*
X101600000Y-119832000D02*
X101600000Y-123388000D01*
X99060000Y-123388000D02*
X99060000Y-121356000D01*
X89980000Y-79920000D02*
X89980000Y-73920000D01*
X85090000Y-119070000D02*
X102870000Y-119070000D01*
X96520000Y-121356000D02*
X96520000Y-123388000D01*
X96520000Y-123388000D02*
X93980000Y-123388000D01*
X93980000Y-121356000D02*
X91440000Y-121356000D01*
X100330000Y-78430000D02*
X100330000Y-74620000D01*
X102870000Y-74620000D02*
X102870000Y-78430000D01*
X105980000Y-125420000D02*
X81980000Y-125420000D01*
X99060000Y-121356000D02*
X96520000Y-121356000D01*
X88900000Y-123388000D02*
X88900000Y-119832000D01*
X102870000Y-119070000D02*
X102870000Y-124150000D01*
X101480000Y-100420000D02*
X101480000Y-118420000D01*
X101600000Y-123388000D02*
X99060000Y-123388000D01*
X86360000Y-123388000D02*
X86360000Y-119832000D01*
X81980000Y-73920000D02*
G75*
G03*
X79980000Y-75920000I-1J-1999999D01*
G01*
X105980000Y-125420000D02*
G75*
G03*
X107980000Y-123420000I1J1999999D01*
G01*
X107980000Y-75920000D02*
G75*
G03*
X105980000Y-73920000I-1999999J1D01*
G01*
X79980000Y-123420000D02*
G75*
G03*
X81980000Y-125420000I1999999J-1D01*
G01*
X107180000Y-123420000D02*
G75*
G03*
X107180000Y-123420000I-1500000J0D01*
G01*
D13*
X86660000Y-76525000D02*
G75*
G03*
X86660000Y-76525000I-300000J0D01*
G01*
D12*
X83780000Y-75920000D02*
G75*
G03*
X83780000Y-75920000I-1500000J0D01*
G01*
D13*
X101900000Y-76525000D02*
G75*
G03*
X101900000Y-76525000I-300000J0D01*
G01*
D14*
X99460000Y-102560000D02*
G75*
G03*
X99460000Y-102560000I-400000J0D01*
G01*
D12*
X107180000Y-75920000D02*
G75*
G03*
X107180000Y-75920000I-1500000J0D01*
G01*
X83780000Y-123420000D02*
G75*
G03*
X83780000Y-123420000I-1500000J0D01*
G01*
%TO.C,R1*%
X113700000Y-87870000D02*
X113700000Y-91310000D01*
X122940000Y-87870000D02*
X113700000Y-87870000D01*
X122940000Y-91310000D02*
X122940000Y-87870000D01*
X111740000Y-89590000D02*
X113700000Y-89590000D01*
X113700000Y-91310000D02*
X122940000Y-91310000D01*
X124900000Y-89590000D02*
X122940000Y-89590000D01*
%TO.C,Weponspeed1*%
X113225000Y-100375000D02*
X113225000Y-101705000D01*
X110565000Y-102975000D02*
X113225000Y-102975000D01*
X113225000Y-102975000D02*
X113225000Y-108115000D01*
X111895000Y-100375000D02*
X113225000Y-100375000D01*
X110565000Y-102975000D02*
X110565000Y-108115000D01*
X110565000Y-108115000D02*
X113225000Y-108115000D01*
%TD*%
M02*
