%TF.GenerationSoftware,KiCad,Pcbnew,6.0.2+dfsg-1*%
%TF.CreationDate,2023-10-04T14:13:59+02:00*%
%TF.ProjectId,controller,636f6e74-726f-46c6-9c65-722e6b696361,rev?*%
%TF.SameCoordinates,Original*%
%TF.FileFunction,Copper,L2,Bot*%
%TF.FilePolarity,Positive*%
%FSLAX46Y46*%
G04 Gerber Fmt 4.6, Leading zero omitted, Abs format (unit mm)*
G04 Created by KiCad (PCBNEW 6.0.2+dfsg-1) date 2023-10-04 14:13:59*
%MOMM*%
%LPD*%
G01*
G04 APERTURE LIST*
%TA.AperFunction,Profile*%
%ADD10C,0.100000*%
%TD*%
%TA.AperFunction,ComponentPad*%
%ADD11R,1.800000X1.800000*%
%TD*%
%TA.AperFunction,ComponentPad*%
%ADD12C,1.800000*%
%TD*%
%TA.AperFunction,ComponentPad*%
%ADD13C,1.600000*%
%TD*%
%TA.AperFunction,ComponentPad*%
%ADD14O,1.600000X1.600000*%
%TD*%
%TA.AperFunction,ComponentPad*%
%ADD15R,1.700000X1.700000*%
%TD*%
%TA.AperFunction,ComponentPad*%
%ADD16O,1.700000X1.700000*%
%TD*%
%TA.AperFunction,ComponentPad*%
%ADD17R,1.524000X1.524000*%
%TD*%
%TA.AperFunction,ComponentPad*%
%ADD18C,1.524000*%
%TD*%
%TA.AperFunction,Conductor*%
%ADD19C,0.250000*%
%TD*%
G04 APERTURE END LIST*
D10*
X76840000Y-69740000D02*
X148800000Y-69740000D01*
X148800000Y-69740000D02*
X148800000Y-127230000D01*
X148800000Y-127230000D02*
X76840000Y-127230000D01*
X76840000Y-127230000D02*
X76840000Y-69740000D01*
D11*
%TO.P,Stop/start_robot1,1,1*%
%TO.N,Net-(ESPcontroller1-Pad15)*%
X137420000Y-75230000D03*
D12*
%TO.P,Stop/start_robot1,2,2*%
%TO.N,unconnected-(Stop/start_robot1-Pad2)*%
X142420000Y-75230000D03*
%TO.P,Stop/start_robot1,3,K*%
%TO.N,Net-(Resistor4-Pad1)*%
X137420000Y-81230000D03*
%TO.P,Stop/start_robot1,4,A*%
%TO.N,Net-(Resistor2-Pad1)*%
X142420000Y-81230000D03*
%TD*%
D11*
%TO.P,Start/stop_wepon1,1,1*%
%TO.N,Net-(ESPcontroller1-Pad15)*%
X121350000Y-75320000D03*
D12*
%TO.P,Start/stop_wepon1,2,2*%
%TO.N,unconnected-(Start/stop_wepon1-Pad2)*%
X126350000Y-75320000D03*
%TO.P,Start/stop_wepon1,3,K*%
%TO.N,Net-(R1-Pad1)*%
X121350000Y-81320000D03*
%TO.P,Start/stop_wepon1,4,A*%
%TO.N,Net-(Resistor1-Pad1)*%
X126350000Y-81320000D03*
%TD*%
D13*
%TO.P,Resistor2,1*%
%TO.N,Net-(Resistor2-Pad1)*%
X132090000Y-115420000D03*
D14*
%TO.P,Resistor2,2*%
%TO.N,Net-(ESPcontroller1-Pad3)*%
X116850000Y-115420000D03*
%TD*%
D15*
%TO.P,U1,1,GND*%
%TO.N,Net-(ESPcontroller1-Pad14)*%
X119395000Y-104140000D03*
D16*
%TO.P,U1,2,5V*%
%TO.N,Net-(ESPcontroller1-Pad15)*%
X119395000Y-106680000D03*
%TO.P,U1,3,VRX*%
%TO.N,Net-(ESPcontroller1-Pad5)*%
X119395000Y-109220000D03*
%TO.P,U1,4,VRY*%
%TO.N,Net-(ESPcontroller1-Pad4)*%
X119395000Y-111760000D03*
%TD*%
D13*
%TO.P,Resistor4,1*%
%TO.N,Net-(Resistor4-Pad1)*%
X132890000Y-98350000D03*
D14*
%TO.P,Resistor4,2*%
%TO.N,Net-(ESPcontroller1-Pad14)*%
X117650000Y-98350000D03*
%TD*%
D13*
%TO.P,Resistor1,1*%
%TO.N,Net-(Resistor1-Pad1)*%
X127710000Y-122530000D03*
D14*
%TO.P,Resistor1,2*%
%TO.N,Net-(ESPcontroller1-Pad2)*%
X112470000Y-122530000D03*
%TD*%
D17*
%TO.P,ESPcontroller1,1,EN*%
%TO.N,unconnected-(ESPcontroller1-Pad1)*%
X106680000Y-119380000D03*
D18*
%TO.P,ESPcontroller1,2,SENSOR_VP*%
%TO.N,Net-(ESPcontroller1-Pad2)*%
X106680000Y-116840000D03*
%TO.P,ESPcontroller1,3,SENSOR_VN*%
%TO.N,Net-(ESPcontroller1-Pad3)*%
X106680000Y-114300000D03*
%TO.P,ESPcontroller1,4,IO34*%
%TO.N,Net-(ESPcontroller1-Pad4)*%
X106680000Y-111760000D03*
%TO.P,ESPcontroller1,5,IO35*%
%TO.N,Net-(ESPcontroller1-Pad5)*%
X106680000Y-109220000D03*
%TO.P,ESPcontroller1,6,IO32*%
%TO.N,unconnected-(ESPcontroller1-Pad6)*%
X106680000Y-106680000D03*
%TO.P,ESPcontroller1,7,IO33*%
%TO.N,Net-(ESPcontroller1-Pad7)*%
X106680000Y-104140000D03*
%TO.P,ESPcontroller1,8,IO25*%
%TO.N,unconnected-(ESPcontroller1-Pad8)*%
X106680000Y-101600000D03*
%TO.P,ESPcontroller1,9,IO26*%
%TO.N,unconnected-(ESPcontroller1-Pad9)*%
X106680000Y-99060000D03*
%TO.P,ESPcontroller1,10,IO27*%
%TO.N,unconnected-(ESPcontroller1-Pad10)*%
X106680000Y-96520000D03*
%TO.P,ESPcontroller1,11,IO14*%
%TO.N,unconnected-(ESPcontroller1-Pad11)*%
X106680000Y-93980000D03*
%TO.P,ESPcontroller1,12,IO12*%
%TO.N,unconnected-(ESPcontroller1-Pad12)*%
X106680000Y-91440000D03*
%TO.P,ESPcontroller1,13,IO13*%
%TO.N,unconnected-(ESPcontroller1-Pad13)*%
X106680000Y-88900000D03*
%TO.P,ESPcontroller1,14,GND*%
%TO.N,Net-(ESPcontroller1-Pad14)*%
X106680000Y-86360000D03*
%TO.P,ESPcontroller1,15,VIN*%
%TO.N,Net-(ESPcontroller1-Pad15)*%
X106680000Y-83820000D03*
%TO.P,ESPcontroller1,16,3V3*%
%TO.N,unconnected-(ESPcontroller1-Pad16)*%
X81280000Y-83820000D03*
%TO.P,ESPcontroller1,17,GND*%
%TO.N,unconnected-(ESPcontroller1-Pad17)*%
X81280000Y-86360000D03*
%TO.P,ESPcontroller1,18,IO15*%
%TO.N,unconnected-(ESPcontroller1-Pad18)*%
X81280000Y-88900000D03*
%TO.P,ESPcontroller1,19,IO2*%
%TO.N,unconnected-(ESPcontroller1-Pad19)*%
X81280000Y-91440000D03*
%TO.P,ESPcontroller1,20,IO4*%
%TO.N,unconnected-(ESPcontroller1-Pad20)*%
X81280000Y-93980000D03*
%TO.P,ESPcontroller1,21,IO16*%
%TO.N,unconnected-(ESPcontroller1-Pad21)*%
X81280000Y-96520000D03*
%TO.P,ESPcontroller1,22,IO17*%
%TO.N,unconnected-(ESPcontroller1-Pad22)*%
X81280000Y-99060000D03*
%TO.P,ESPcontroller1,23,IO5*%
%TO.N,unconnected-(ESPcontroller1-Pad23)*%
X81280000Y-101600000D03*
%TO.P,ESPcontroller1,24,IO18*%
%TO.N,unconnected-(ESPcontroller1-Pad24)*%
X81280000Y-104140000D03*
%TO.P,ESPcontroller1,25,IO19*%
%TO.N,unconnected-(ESPcontroller1-Pad25)*%
X81280000Y-106680000D03*
%TO.P,ESPcontroller1,26,IO21*%
%TO.N,unconnected-(ESPcontroller1-Pad26)*%
X81280000Y-109220000D03*
%TO.P,ESPcontroller1,27,RXD0/IO3*%
%TO.N,unconnected-(ESPcontroller1-Pad27)*%
X81280000Y-111760000D03*
%TO.P,ESPcontroller1,28,TXD0/IO1*%
%TO.N,unconnected-(ESPcontroller1-Pad28)*%
X81280000Y-114300000D03*
%TO.P,ESPcontroller1,29,IO22*%
%TO.N,unconnected-(ESPcontroller1-Pad29)*%
X81280000Y-116840000D03*
%TO.P,ESPcontroller1,30,IO23*%
%TO.N,unconnected-(ESPcontroller1-Pad30)*%
X81280000Y-119380000D03*
%TD*%
D13*
%TO.P,R1,1*%
%TO.N,Net-(R1-Pad1)*%
X125940000Y-89590000D03*
D14*
%TO.P,R1,2*%
%TO.N,Net-(ESPcontroller1-Pad14)*%
X110700000Y-89590000D03*
%TD*%
D15*
%TO.P,Weponspeed1,1,1*%
%TO.N,Net-(ESPcontroller1-Pad14)*%
X111895000Y-101705000D03*
D16*
%TO.P,Weponspeed1,2,2*%
%TO.N,Net-(ESPcontroller1-Pad7)*%
X111895000Y-104245000D03*
%TO.P,Weponspeed1,3,3*%
%TO.N,Net-(ESPcontroller1-Pad15)*%
X111895000Y-106785000D03*
%TD*%
D19*
%TO.N,Net-(ESPcontroller1-Pad4)*%
X119395000Y-111760000D02*
X106680000Y-111760000D01*
%TO.N,Net-(ESPcontroller1-Pad2)*%
X112470000Y-122530000D02*
X106780000Y-116840000D01*
X106780000Y-116840000D02*
X106680000Y-116840000D01*
%TO.N,Net-(Resistor1-Pad1)*%
X127990000Y-82960000D02*
X127990000Y-108150000D01*
X127710000Y-122530000D02*
X127710000Y-108430000D01*
X127710000Y-108430000D02*
X127990000Y-108150000D01*
%TO.N,Net-(Resistor4-Pad1)*%
X137420000Y-81230000D02*
X137420000Y-93820000D01*
X137420000Y-93820000D02*
X132890000Y-98350000D01*
%TO.N,Net-(Resistor2-Pad1)*%
X143920000Y-103590000D02*
X143920000Y-82730000D01*
X143920000Y-82730000D02*
X142420000Y-81230000D01*
%TO.N,Net-(R1-Pad1)*%
X121350000Y-81320000D02*
X121350000Y-85000000D01*
X121350000Y-85000000D02*
X125940000Y-89590000D01*
%TO.N,Net-(Resistor1-Pad1)*%
X126350000Y-81320000D02*
X127990000Y-82960000D01*
%TO.N,Net-(ESPcontroller1-Pad14)*%
X119395000Y-104140000D02*
X119395000Y-100095000D01*
X119395000Y-100095000D02*
X117650000Y-98350000D01*
%TO.N,Net-(ESPcontroller1-Pad15)*%
X119395000Y-106680000D02*
X122300000Y-106680000D01*
X122300000Y-106680000D02*
X123490000Y-105490000D01*
X123490000Y-105490000D02*
X123490000Y-92470000D01*
X123490000Y-92470000D02*
X113845000Y-82825000D01*
X111895000Y-106785000D02*
X119290000Y-106785000D01*
%TO.N,Net-(ESPcontroller1-Pad5)*%
X119395000Y-109220000D02*
X106680000Y-109220000D01*
%TO.N,Net-(ESPcontroller1-Pad3)*%
X116850000Y-115420000D02*
X107800000Y-115420000D01*
X107800000Y-115420000D02*
X106680000Y-114300000D01*
%TO.N,Net-(ESPcontroller1-Pad7)*%
X106785000Y-104245000D02*
X106680000Y-104140000D01*
X111895000Y-104245000D02*
X106785000Y-104245000D01*
%TO.N,Net-(ESPcontroller1-Pad15)*%
X113845000Y-82825000D02*
X121350000Y-75320000D01*
X136105489Y-76544511D02*
X137420000Y-75230000D01*
X106680000Y-83820000D02*
X112850000Y-83820000D01*
X121350000Y-75320000D02*
X121350000Y-75480000D01*
X112850000Y-83820000D02*
X113385000Y-83285000D01*
X121350000Y-75480000D02*
X122414511Y-76544511D01*
X113385000Y-83285000D02*
X113845000Y-82825000D01*
X122414511Y-76544511D02*
X136105489Y-76544511D01*
%TO.N,Net-(Resistor2-Pad1)*%
X132090000Y-115420000D02*
X143920000Y-103590000D01*
%TO.N,Net-(ESPcontroller1-Pad14)*%
X115250000Y-98350000D02*
X111895000Y-101705000D01*
X107470000Y-86360000D02*
X106680000Y-86360000D01*
X117650000Y-98350000D02*
X115250000Y-98350000D01*
X117650000Y-96540000D02*
X110700000Y-89590000D01*
X110700000Y-89590000D02*
X107470000Y-86360000D01*
X117650000Y-98350000D02*
X117650000Y-96540000D01*
%TD*%
M02*
