M48
; DRILL file {KiCad 6.0.2+dfsg-1} date Wed 04 Oct 2023 14:13:46 CEST
; FORMAT={-:-/ absolute / metric / decimal}
; #@! TF.CreationDate,2023-10-04T14:13:46+02:00
; #@! TF.GenerationSoftware,Kicad,Pcbnew,6.0.2+dfsg-1
; #@! TF.FileFunction,Plated,1,2,PTH
FMAT,2
METRIC
; #@! TA.AperFunction,Plated,PTH,ComponentDrill
T1C0.762
; #@! TA.AperFunction,Plated,PTH,ComponentDrill
T2C0.800
; #@! TA.AperFunction,Plated,PTH,ComponentDrill
T3C0.900
; #@! TA.AperFunction,Plated,PTH,ComponentDrill
T4C1.000
%
G90
G05
T1
X81.28Y-83.82
X81.28Y-86.36
X81.28Y-88.9
X81.28Y-91.44
X81.28Y-93.98
X81.28Y-96.52
X81.28Y-99.06
X81.28Y-101.6
X81.28Y-104.14
X81.28Y-106.68
X81.28Y-109.22
X81.28Y-111.76
X81.28Y-114.3
X81.28Y-116.84
X81.28Y-119.38
X106.68Y-83.82
X106.68Y-86.36
X106.68Y-88.9
X106.68Y-91.44
X106.68Y-93.98
X106.68Y-96.52
X106.68Y-99.06
X106.68Y-101.6
X106.68Y-104.14
X106.68Y-106.68
X106.68Y-109.22
X106.68Y-111.76
X106.68Y-114.3
X106.68Y-116.84
X106.68Y-119.38
T2
X110.7Y-89.59
X112.47Y-122.53
X116.85Y-115.42
X117.65Y-98.35
X125.94Y-89.59
X127.71Y-122.53
X132.09Y-115.42
X132.89Y-98.35
T3
X121.35Y-75.32
X121.35Y-81.32
X126.35Y-75.32
X126.35Y-81.32
X137.42Y-75.23
X137.42Y-81.23
X142.42Y-75.23
X142.42Y-81.23
T4
X111.895Y-101.705
X111.895Y-104.245
X111.895Y-106.785
X119.395Y-104.14
X119.395Y-106.68
X119.395Y-109.22
X119.395Y-111.76
T0
M30
